<svg xmlns="http://www.w3.org/2000/svg" xmlns:xlink="http://www.w3.org/1999/xlink" width="46" zoomAndPan="magnify" viewBox="0 0 34.5 34.5" height="46" preserveAspectRatio="xMidYMid meet" version="1.0"><defs><clipPath id="0dbce5094f"><path d="M 0 0 L 34.007812 0 L 34.007812 33.96875 L 0 33.96875 Z M 0 0 " clip-rule="nonzero"/></clipPath><clipPath id="87d9cfcd73"><path d="M 17.003906 -0.0390625 C 7.613281 -0.0390625 0 7.574219 0 16.964844 C 0 26.355469 7.613281 33.96875 17.003906 33.96875 C 26.394531 33.96875 34.007812 26.355469 34.007812 16.964844 C 34.007812 7.574219 26.394531 -0.0390625 17.003906 -0.0390625 Z M 17.003906 -0.0390625 " clip-rule="nonzero"/></clipPath></defs><g clip-path="url(#0dbce5094f)"><g clip-path="url(#87d9cfcd73)"><path fill="#000000" d="M 0 -0.0390625 L 34.007812 -0.0390625 L 34.007812 33.96875 L 0 33.96875 Z M 0 -0.0390625 " fill-opacity="1" fill-rule="nonzero"/></g></g><path stroke-linecap="round" transform="matrix(0.739286, 0, 0, 0.739286, 12.644301, 8.344785)" fill="none" stroke-linejoin="miter" d="M 1.997594 2.001167 L 19.502879 2.001167 " stroke="#ffffff" stroke-width="4" stroke-opacity="1" stroke-miterlimit="4"/><path stroke-linecap="round" transform="matrix(0.739286, 0, 0, 0.739286, 8.591494, 8.344785)" fill="none" stroke-linejoin="miter" d="M 2.000334 2.001167 L 0.742786 2.001167 " stroke="#ffffff" stroke-width="4" stroke-opacity="1" stroke-miterlimit="4"/><path stroke-linecap="round" transform="matrix(0.739286, 0, 0, 0.739286, 10.617898, 19.024015)" fill="none" stroke-linejoin="miter" d="M 2.001605 2.001786 L 0.738773 2.001786 " stroke="#ffffff" stroke-width="4" stroke-opacity="1" stroke-miterlimit="4"/><path stroke-linecap="round" transform="matrix(0.739286, 0, 0, 0.739286, 10.617898, 11.951576)" fill="none" stroke-linejoin="miter" d="M 2.001605 1.999379 L 0.738773 1.999379 " stroke="#ffffff" stroke-width="4" stroke-opacity="1" stroke-miterlimit="4"/><path stroke-linecap="round" transform="matrix(0.739286, 0, 0, 0.739286, 2.661428, 15.487796)" fill="none" stroke-linejoin="miter" d="M 2.000846 1.997939 L 0.743297 1.997939 " stroke="#ffffff" stroke-width="4" stroke-opacity="1" stroke-miterlimit="4"/><path stroke-linecap="round" transform="matrix(0.739286, 0, 0, 0.739286, 8.591494, 22.560233)" fill="none" stroke-linejoin="miter" d="M 2.000334 2.000349 L 0.742786 2.000349 " stroke="#ffffff" stroke-width="4" stroke-opacity="1" stroke-miterlimit="4"/><path stroke-linecap="round" transform="matrix(0.739286, 0, 0, 0.739286, 14.844398, 11.951576)" fill="none" stroke-linejoin="miter" d="M 2.00169 1.999379 L 4.109933 1.999379 " stroke="#ffffff" stroke-width="4" stroke-opacity="1" stroke-miterlimit="4"/><path stroke-linecap="round" transform="matrix(0.739286, 0, 0, 0.739286, 20.981507, 11.951576)" fill="none" stroke-linejoin="miter" d="M 2.001162 1.999379 L 8.225498 1.999379 " stroke="#ffffff" stroke-width="4" stroke-opacity="1" stroke-miterlimit="4"/><path stroke-linecap="round" transform="matrix(0.739286, 0, 0, 0.739286, 20.981507, 22.560233)" fill="none" stroke-linejoin="miter" d="M 2.001162 2.000349 L 8.225498 2.000349 " stroke="#ffffff" stroke-width="4" stroke-opacity="1" stroke-miterlimit="4"/><path stroke-linecap="round" transform="matrix(0.739286, 0, 0, 0.739286, 17.795754, 15.487796)" fill="none" stroke-linejoin="miter" d="M 1.998799 1.997939 L 12.534729 1.997939 " stroke="#ffffff" stroke-width="4" stroke-opacity="1" stroke-miterlimit="4"/><path stroke-linecap="round" transform="matrix(0.739286, 0, 0, 0.739286, 7.097053, 15.487796)" fill="none" stroke-linejoin="miter" d="M 1.998099 1.997939 L 10.0295 1.997939 " stroke="#ffffff" stroke-width="4" stroke-opacity="1" stroke-miterlimit="4"/><path stroke-linecap="round" transform="matrix(0.739286, 0, 0, 0.739286, 12.644301, 22.560233)" fill="none" stroke-linejoin="miter" d="M 1.997594 2.000349 L 7.286694 2.000349 " stroke="#ffffff" stroke-width="4" stroke-opacity="1" stroke-miterlimit="4"/><path stroke-linecap="round" transform="matrix(0.739286, 0, 0, 0.739286, 14.844398, 19.024015)" fill="none" stroke-linejoin="miter" d="M 2.00169 2.001786 L 16.526902 2.001786 " stroke="#ffffff" stroke-width="4" stroke-opacity="1" stroke-miterlimit="4"/><path stroke-linecap="butt" transform="matrix(0.0000000012903, 0.739286, -0.739286, 0.0000000012903, 28.892512, 7.288896)" fill="none" stroke-linejoin="miter" d="M 0.000225485 1.001194 L 26.287213 1.001194 " stroke="#a81010" stroke-width="2" stroke-opacity="1" stroke-miterlimit="4"/></svg>