<svg xmlns="http://www.w3.org/2000/svg" xmlns:xlink="http://www.w3.org/1999/xlink" width="100" zoomAndPan="magnify" viewBox="0 0 75 37.5" height="30" preserveAspectRatio="xMidYMid meet" version="1.0"><defs><g/></defs><g fill="#a81010" fill-opacity="1"><g transform="translate(42.414865, 18.798509)"><g><path d="M 6.625 -8.296875 L 2.859375 -8.296875 L 2.859375 -4.734375 L 2.75 -4.734375 L 0.765625 -6.8125 C 0.410156 -7.175781 0.175781 -7.597656 0.0625 -8.078125 C -0.0507812 -8.566406 -0.046875 -9.035156 0.078125 -9.484375 C 0.210938 -9.941406 0.476562 -10.320312 0.875 -10.625 C 1.269531 -10.925781 1.800781 -11.078125 2.46875 -11.078125 L 6.625 -11.078125 C 6.988281 -11.078125 7.28125 -10.984375 7.5 -10.796875 C 7.71875 -10.609375 7.863281 -10.375 7.9375 -10.09375 C 8.019531 -9.820312 8.019531 -9.546875 7.9375 -9.265625 C 7.863281 -8.992188 7.71875 -8.765625 7.5 -8.578125 C 7.289062 -8.390625 7 -8.296875 6.625 -8.296875 Z M 1.375 -2.765625 C 1.007812 -2.765625 0.710938 -2.671875 0.484375 -2.484375 C 0.265625 -2.304688 0.117188 -2.078125 0.046875 -1.796875 C -0.015625 -1.523438 -0.015625 -1.25 0.046875 -0.96875 C 0.117188 -0.695312 0.265625 -0.46875 0.484375 -0.28125 C 0.710938 -0.101562 1.007812 -0.015625 1.375 -0.015625 C 1.914062 -0.00390625 2.40625 0 2.84375 0 C 3.28125 0 3.722656 0 4.171875 0 C 4.617188 -0.0078125 5.109375 -0.015625 5.640625 -0.015625 C 6.109375 -0.015625 6.519531 -0.128906 6.875 -0.359375 C 7.238281 -0.585938 7.523438 -0.878906 7.734375 -1.234375 C 7.953125 -1.597656 8.078125 -1.992188 8.109375 -2.421875 C 8.148438 -2.859375 8.09375 -3.28125 7.9375 -3.6875 C 7.78125 -4.101562 7.519531 -4.460938 7.15625 -4.765625 L 5.359375 -6.21875 L 5.25 -6.21875 L 5.25 -2.765625 Z M 1.375 -2.765625 "/></g></g></g><g fill="#a81010" fill-opacity="1"><g transform="translate(50.999155, 18.798509)"><g><path d="M 0 -8.734375 C 0 -9.171875 0.101562 -9.566406 0.3125 -9.921875 C 0.53125 -10.273438 0.8125 -10.554688 1.15625 -10.765625 C 1.507812 -10.972656 1.90625 -11.078125 2.34375 -11.078125 L 6.171875 -11.078125 C 6.546875 -11.078125 6.867188 -10.9375 7.140625 -10.65625 C 7.421875 -10.382812 7.5625 -10.0625 7.5625 -9.6875 C 7.5625 -9.320312 7.421875 -9 7.140625 -8.71875 C 6.867188 -8.445312 6.546875 -8.3125 6.171875 -8.3125 L 2.765625 -8.3125 L 2.765625 -2.734375 L 6.140625 -2.734375 C 6.523438 -2.734375 6.851562 -2.601562 7.125 -2.34375 C 7.394531 -2.082031 7.53125 -1.753906 7.53125 -1.359375 C 7.53125 -0.984375 7.394531 -0.660156 7.125 -0.390625 C 6.851562 -0.128906 6.523438 0 6.140625 0 L 2.34375 0 C 1.90625 0 1.507812 -0.101562 1.15625 -0.3125 C 0.8125 -0.53125 0.53125 -0.8125 0.3125 -1.15625 C 0.101562 -1.507812 0 -1.90625 0 -2.34375 Z M 0 -8.734375 "/></g></g></g><g fill="#a81010" fill-opacity="1"><g transform="translate(59.030137, 18.798509)"><g><path d="M 0 -8.734375 C 0 -9.171875 0.101562 -9.566406 0.3125 -9.921875 C 0.53125 -10.273438 0.8125 -10.554688 1.15625 -10.765625 C 1.507812 -10.972656 1.90625 -11.078125 2.34375 -11.078125 L 6.171875 -11.078125 C 6.546875 -11.078125 6.867188 -10.9375 7.140625 -10.65625 C 7.421875 -10.382812 7.5625 -10.0625 7.5625 -9.6875 C 7.5625 -9.320312 7.421875 -9 7.140625 -8.71875 C 6.867188 -8.445312 6.546875 -8.3125 6.171875 -8.3125 L 2.765625 -8.3125 L 2.765625 -2.734375 L 6.140625 -2.734375 C 6.523438 -2.734375 6.851562 -2.601562 7.125 -2.34375 C 7.394531 -2.082031 7.53125 -1.753906 7.53125 -1.359375 C 7.53125 -0.984375 7.394531 -0.660156 7.125 -0.390625 C 6.851562 -0.128906 6.523438 0 6.140625 0 L 2.34375 0 C 1.90625 0 1.507812 -0.101562 1.15625 -0.3125 C 0.8125 -0.53125 0.53125 -0.8125 0.3125 -1.15625 C 0.101562 -1.507812 0 -1.90625 0 -2.34375 Z M 0 -8.734375 "/></g></g></g><g fill="#ffffff" fill-opacity="1"><g transform="translate(42.414865, 30.110648)"><g><path d="M 3.03125 -10.6875 C 3.4375 -11 3.804688 -11.160156 4.140625 -11.171875 C 4.472656 -11.179688 4.832031 -11.019531 5.21875 -10.6875 L 7.296875 -8.984375 C 7.597656 -8.734375 7.832031 -8.484375 8 -8.234375 C 8.164062 -7.992188 8.257812 -7.679688 8.28125 -7.296875 L 8.28125 -1.296875 C 8.28125 -0.921875 8.144531 -0.597656 7.875 -0.328125 C 7.613281 -0.0664062 7.296875 0.0625 6.921875 0.0625 C 6.523438 0.0625 6.191406 -0.0664062 5.921875 -0.328125 C 5.660156 -0.597656 5.53125 -0.921875 5.53125 -1.296875 L 5.53125 -2.640625 L 2.765625 -5.1875 L 2.765625 -1.296875 C 2.765625 -0.921875 2.628906 -0.597656 2.359375 -0.328125 C 2.097656 -0.0664062 1.773438 0.0625 1.390625 0.0625 C 1.015625 0.0625 0.6875 -0.0664062 0.40625 -0.328125 C 0.132812 -0.597656 0 -0.921875 0 -1.296875 L 0 -7.296875 C 0.03125 -7.679688 0.128906 -7.992188 0.296875 -8.234375 C 0.472656 -8.484375 0.710938 -8.734375 1.015625 -8.984375 Z M 5.53125 -5.390625 L 5.53125 -8.28125 L 2.765625 -8.28125 L 2.765625 -5.390625 Z M 5.53125 -5.390625 "/></g></g></g><g fill="#ffffff" fill-opacity="1"><g transform="translate(51.341853, 30.110648)"><g><path d="M 2.578125 -10.65625 C 2.878906 -11 3.242188 -11.171875 3.671875 -11.171875 C 4.097656 -11.171875 4.460938 -11 4.765625 -10.65625 L 5.96875 -9.375 L 7.171875 -10.65625 C 7.503906 -11 7.878906 -11.171875 8.296875 -11.171875 C 8.722656 -11.171875 9.09375 -11 9.40625 -10.65625 L 11.015625 -8.96875 C 11.253906 -8.695312 11.46875 -8.445312 11.65625 -8.21875 C 11.84375 -7.988281 11.957031 -7.679688 12 -7.296875 L 12 -1.265625 C 12 -0.910156 11.898438 -0.625 11.703125 -0.40625 C 11.515625 -0.1875 11.285156 -0.046875 11.015625 0.015625 C 10.742188 0.0859375 10.46875 0.0859375 10.1875 0.015625 C 9.914062 -0.046875 9.6875 -0.1875 9.5 -0.40625 C 9.3125 -0.625 9.21875 -0.910156 9.21875 -1.265625 L 9.21875 -8.28125 L 7.359375 -8.28125 L 7.359375 -1.265625 C 7.359375 -0.898438 7.265625 -0.601562 7.078125 -0.375 C 6.898438 -0.15625 6.671875 -0.015625 6.390625 0.046875 C 6.117188 0.117188 5.84375 0.117188 5.5625 0.046875 C 5.28125 -0.015625 5.046875 -0.15625 4.859375 -0.375 C 4.679688 -0.601562 4.59375 -0.898438 4.59375 -1.265625 L 4.59375 -8.28125 L 2.765625 -8.28125 L 2.765625 -1.265625 C 2.765625 -0.910156 2.671875 -0.625 2.484375 -0.40625 C 2.296875 -0.1875 2.0625 -0.046875 1.78125 0.015625 C 1.507812 0.0859375 1.234375 0.0859375 0.953125 0.015625 C 0.679688 -0.046875 0.453125 -0.1875 0.265625 -0.40625 C 0.078125 -0.625 -0.015625 -0.910156 -0.015625 -1.265625 L -0.015625 -7.296875 C 0.00390625 -7.679688 0.109375 -7.988281 0.296875 -8.21875 C 0.484375 -8.445312 0.707031 -8.695312 0.96875 -8.96875 Z M 2.578125 -10.65625 "/></g></g></g><g fill="#ffffff" fill-opacity="1"><g transform="translate(63.972581, 30.110648)"><g><path d="M 6.625 -8.296875 L 2.859375 -8.296875 L 2.859375 -4.734375 L 2.75 -4.734375 L 0.765625 -6.8125 C 0.410156 -7.175781 0.175781 -7.597656 0.0625 -8.078125 C -0.0507812 -8.566406 -0.046875 -9.035156 0.078125 -9.484375 C 0.210938 -9.941406 0.476562 -10.320312 0.875 -10.625 C 1.269531 -10.925781 1.800781 -11.078125 2.46875 -11.078125 L 6.625 -11.078125 C 6.988281 -11.078125 7.28125 -10.984375 7.5 -10.796875 C 7.71875 -10.609375 7.863281 -10.375 7.9375 -10.09375 C 8.019531 -9.820312 8.019531 -9.546875 7.9375 -9.265625 C 7.863281 -8.992188 7.71875 -8.765625 7.5 -8.578125 C 7.289062 -8.390625 7 -8.296875 6.625 -8.296875 Z M 1.375 -2.765625 C 1.007812 -2.765625 0.710938 -2.671875 0.484375 -2.484375 C 0.265625 -2.304688 0.117188 -2.078125 0.046875 -1.796875 C -0.015625 -1.523438 -0.015625 -1.25 0.046875 -0.96875 C 0.117188 -0.695312 0.265625 -0.46875 0.484375 -0.28125 C 0.710938 -0.101562 1.007812 -0.015625 1.375 -0.015625 C 1.914062 -0.00390625 2.40625 0 2.84375 0 C 3.28125 0 3.722656 0 4.171875 0 C 4.617188 -0.0078125 5.109375 -0.015625 5.640625 -0.015625 C 6.109375 -0.015625 6.519531 -0.128906 6.875 -0.359375 C 7.238281 -0.585938 7.523438 -0.878906 7.734375 -1.234375 C 7.953125 -1.597656 8.078125 -1.992188 8.109375 -2.421875 C 8.148438 -2.859375 8.09375 -3.28125 7.9375 -3.6875 C 7.78125 -4.101562 7.519531 -4.460938 7.15625 -4.765625 L 5.359375 -6.21875 L 5.25 -6.21875 L 5.25 -2.765625 Z M 1.375 -2.765625 "/></g></g></g><path stroke-linecap="round" transform="matrix(0.740132, 0, 0, 0.740132, 17.028104, 6.3027)" fill="none" stroke-linejoin="miter" d="M 2.500639 2.499074 L 28.942307 2.499074 " stroke="#ffffff" stroke-width="5" stroke-opacity="1" stroke-miterlimit="4"/><path stroke-linecap="round" transform="matrix(0.740132, 0, 0, 0.740132, 11.094822, 6.3027)" fill="none" stroke-linejoin="miter" d="M 2.500219 2.499074 L 1.507997 2.499074 " stroke="#ffffff" stroke-width="5" stroke-opacity="1" stroke-miterlimit="4"/><path stroke-linecap="round" transform="matrix(0.740132, 0, 0, 0.740132, 14.061463, 21.937018)" fill="none" stroke-linejoin="miter" d="M 2.497791 2.502319 L 1.510846 2.502319 " stroke="#ffffff" stroke-width="5" stroke-opacity="1" stroke-miterlimit="4"/><path stroke-linecap="round" transform="matrix(0.740132, 0, 0, 0.740132, 14.061463, 11.583017)" fill="none" stroke-linejoin="miter" d="M 2.497791 2.500334 L 1.510846 2.500334 " stroke="#ffffff" stroke-width="5" stroke-opacity="1" stroke-miterlimit="4"/><path stroke-linecap="round" transform="matrix(0.740132, 0, 0, 0.740132, 2.413248, 16.760018)" fill="none" stroke-linejoin="miter" d="M 2.49749 2.498687 L 1.510545 2.498687 " stroke="#ffffff" stroke-width="5" stroke-opacity="1" stroke-miterlimit="4"/><path stroke-linecap="round" transform="matrix(0.740132, 0, 0, 0.740132, 11.094822, 27.114019)" fill="none" stroke-linejoin="miter" d="M 2.500219 2.50067 L 1.507997 2.50067 " stroke="#ffffff" stroke-width="5" stroke-opacity="1" stroke-miterlimit="4"/><path stroke-linecap="round" transform="matrix(0.740132, 0, 0, 0.740132, 20.249028, 11.583017)" fill="none" stroke-linejoin="miter" d="M 2.497702 2.500334 L 6.434924 2.500334 " stroke="#ffffff" stroke-width="5" stroke-opacity="1" stroke-miterlimit="4"/><path stroke-linecap="round" transform="matrix(0.740132, 0, 0, 0.740132, 29.23371, 11.583017)" fill="none" stroke-linejoin="miter" d="M 2.502565 2.500334 L 12.451176 2.500334 " stroke="#ffffff" stroke-width="5" stroke-opacity="1" stroke-miterlimit="4"/><path stroke-linecap="round" transform="matrix(0.740132, 0, 0, 0.740132, 29.23371, 27.114019)" fill="none" stroke-linejoin="miter" d="M 2.502565 2.50067 L 12.451176 2.50067 " stroke="#ffffff" stroke-width="5" stroke-opacity="1" stroke-miterlimit="4"/><path stroke-linecap="round" transform="matrix(0.740132, 0, 0, 0.740132, 24.569792, 16.760018)" fill="none" stroke-linejoin="miter" d="M 2.50237 2.498687 L 18.752649 2.498687 " stroke="#ffffff" stroke-width="5" stroke-opacity="1" stroke-miterlimit="4"/><path stroke-linecap="round" transform="matrix(0.740132, 0, 0, 0.740132, 8.906969, 16.760018)" fill="none" stroke-linejoin="miter" d="M 2.500695 2.498687 L 15.093473 2.498687 " stroke="#ffffff" stroke-width="5" stroke-opacity="1" stroke-miterlimit="4"/><path stroke-linecap="round" transform="matrix(0.740132, 0, 0, 0.740132, 17.028104, 27.114019)" fill="none" stroke-linejoin="miter" d="M 2.500639 2.50067 L 11.082306 2.50067 " stroke="#ffffff" stroke-width="5" stroke-opacity="1" stroke-miterlimit="4"/><path stroke-linecap="round" transform="matrix(0.740132, 0, 0, 0.740132, 20.249028, 21.937018)" fill="none" stroke-linejoin="miter" d="M 2.497702 2.502319 L 24.590481 2.502319 " stroke="#ffffff" stroke-width="5" stroke-opacity="1" stroke-miterlimit="4"/><path stroke-linecap="butt" transform="matrix(0, 0.740132, -0.740132, 0, 40.839664, 4.446193)" fill="none" stroke-linejoin="miter" d="M -0.00118917 1.498646 L 38.436868 1.498646 " stroke="#a81010" stroke-width="3" stroke-opacity="1" stroke-miterlimit="4"/></svg>